<?xml version="1.0" encoding="UTF-8" standalone="no"?>
<!DOCTYPE svg PUBLIC "-//W3C//DTD SVG 1.1//EN" "http://www.w3.org/Graphics/SVG/1.1/DTD/svg11.dtd">
<svg width="100%" height="100%" viewBox="0 0 277 277" version="1.1" xmlns="http://www.w3.org/2000/svg" xmlns:xlink="http://www.w3.org/1999/xlink" xml:space="preserve" xmlns:serif="http://www.serif.com/" style="fill-rule:evenodd;clip-rule:evenodd;stroke-linejoin:round;stroke-miterlimit:2;">
    <g transform="matrix(1,0,0,1,-328.553,0)">
        <g id="Artboard2" transform="matrix(1,0,0,1,3524.74,-1715.25)">
            <rect x="-3196.19" y="1715.25" width="276.413" height="276.413" style="fill:none;"/>
            <g transform="matrix(2.19119,0,0,2.19119,-3570.57,1755.46)">
                <path d="M270.125,7.146C272.521,7.146 274.464,9.063 274.464,11.429C274.464,13.795 272.521,15.713 270.125,15.713C267.729,15.713 265.788,13.795 265.788,11.429C265.788,9.063 267.729,7.146 270.125,7.146Z" style="fill:rgb(143,226,105);fill-rule:nonzero;"/>
                <path d="M201.976,28.702C203.907,28.702 205.473,30.248 205.473,32.156C205.473,34.065 203.907,35.611 201.976,35.611C200.044,35.611 198.476,34.065 198.476,32.156C198.476,30.248 200.044,28.702 201.976,28.702Z" style="fill:rgb(143,226,105);fill-rule:nonzero;"/>
                <path d="M235.14,65.043C237.536,65.043 239.478,66.961 239.478,69.327C239.478,71.694 237.536,73.611 235.14,73.611C232.744,73.611 230.802,71.694 230.802,69.327C230.802,66.961 232.744,65.043 235.14,65.043Z" style="fill:rgb(0,108,135);fill-rule:nonzero;"/>
                <path d="M275.444,52.055L275.444,74.578C275.444,76.513 273.904,78.033 271.945,78.033L257.81,78.033C255.852,78.033 254.313,76.513 254.313,74.578L254.313,52.055C254.313,50.12 255.852,48.6 257.81,48.6L271.945,48.6C273.904,48.6 275.444,50.12 275.444,52.055Z" style="fill:rgb(60,186,235);fill-rule:nonzero;"/>
                <path d="M215.969,52.055L215.969,74.578C215.969,76.513 214.43,78.033 212.472,78.033L198.337,78.033C196.378,78.033 194.838,76.513 194.838,74.578L194.838,52.055C194.838,50.12 196.378,48.6 198.337,48.6L212.472,48.6C214.43,48.6 215.969,50.12 215.969,52.055Z" style="fill:rgb(143,226,105);fill-rule:nonzero;"/>
                <path d="M258.79,31.327L258.79,35.473C258.79,37.545 257.112,39.204 255.012,39.204L215.27,39.204C213.17,39.204 211.492,37.545 211.492,35.473L211.492,31.327L258.79,31.327Z" style="fill:rgb(254,152,0);fill-rule:nonzero;"/>
                <path d="M230.802,7.422L230.802,10.6L211.492,10.6L211.492,7.422C211.492,5.349 213.17,3.691 215.27,3.691L227.024,3.691C229.123,3.691 230.802,5.349 230.802,7.422Z" style="fill:rgb(254,152,0);fill-rule:nonzero;"/>
                <path d="M211.492,10.6L255.012,10.6C257.112,10.6 258.79,12.258 258.79,14.331L258.79,31.327L211.492,31.327L211.492,10.6Z" style="fill:rgb(254,193,0);fill-rule:nonzero;"/>
                <path d="M266.207,35.749C266.903,35.749 267.466,36.306 267.466,36.993C267.466,37.679 266.903,38.236 266.207,38.236C265.511,38.236 264.948,37.679 264.948,36.993C264.948,36.306 265.511,35.749 266.207,35.749Z" style="fill-rule:nonzero;"/>
                <path d="M265.368,20.135C266.063,20.135 266.626,20.692 266.626,21.378C266.626,22.064 266.063,22.622 265.368,22.622C264.672,22.622 264.109,22.064 264.109,21.378C264.109,20.692 264.672,20.135 265.368,20.135Z" style="fill-rule:nonzero;"/>
                <path d="M247.875,3.691C248.571,3.691 249.134,4.248 249.134,4.935C249.134,5.621 248.571,6.178 247.875,6.178C247.179,6.178 246.616,5.621 246.616,4.935C246.616,4.248 247.179,3.691 247.875,3.691Z" style="fill-rule:nonzero;"/>
                <path d="M248.715,48.186C249.275,48.738 249.275,49.567 248.715,49.982C248.155,50.535 247.316,50.535 246.896,49.982C246.337,49.429 246.337,48.6 246.896,48.186C247.456,47.633 248.296,47.633 248.715,48.186Z" style="fill-rule:nonzero;"/>
                <path d="M244.377,61.174C244.937,61.727 244.937,62.556 244.377,62.971C243.818,63.523 242.978,63.523 242.558,62.971C241.998,62.418 241.998,61.589 242.558,61.174C242.978,60.622 243.818,60.622 244.377,61.174Z" style="fill-rule:nonzero;"/>
                <path d="M226.045,55.924C226.604,56.476 226.604,57.306 226.045,57.72C225.485,58.273 224.645,58.273 224.226,57.72C223.666,57.167 223.666,56.338 224.226,55.924C224.645,55.509 225.485,55.509 226.045,55.924Z" style="fill-rule:nonzero;"/>
                <path d="M204.914,42.658C205.61,42.658 206.173,43.215 206.173,43.902C206.173,44.589 205.61,45.146 204.914,45.146C204.219,45.146 203.656,44.589 203.656,43.902C203.656,43.215 204.219,42.658 204.914,42.658Z" style="fill-rule:nonzero;"/>
                <path d="M202.395,7.146C203.091,7.146 203.656,7.702 203.656,8.389C203.656,9.076 203.091,9.633 202.395,9.633C201.7,9.633 201.137,9.076 201.137,8.389C201.137,7.702 201.7,7.146 202.395,7.146Z" style="fill-rule:nonzero;"/>
                <path d="M198.337,49.567C196.938,49.567 195.818,50.673 195.818,52.055L195.818,74.578C195.818,75.96 196.938,77.066 198.337,77.066L212.472,77.066C213.87,77.066 214.989,75.96 214.989,74.578L214.989,52.055C214.989,50.673 213.87,49.567 212.472,49.567L198.337,49.567ZM212.472,78.862L198.337,78.862C195.959,78.862 194,76.927 194,74.578L194,52.055C194,49.706 195.959,47.771 198.337,47.771L212.472,47.771C214.85,47.771 216.808,49.706 216.808,52.055L216.808,74.578C216.808,76.927 214.85,78.862 212.472,78.862Z" style="fill-rule:nonzero;"/>
                <path d="M206.313,55.509L199.316,55.509C198.897,55.509 198.476,55.095 198.476,54.68C198.476,54.266 198.897,53.851 199.316,53.851L206.313,53.851C206.734,53.851 207.153,54.266 207.153,54.68C207.153,55.095 206.734,55.509 206.313,55.509Z" style="fill-rule:nonzero;"/>
                <path d="M210.653,59.931L199.316,59.931C198.897,59.931 198.476,59.517 198.476,59.102C198.476,58.688 198.897,58.273 199.316,58.273L210.653,58.273C211.072,58.273 211.492,58.688 211.492,59.102C211.492,59.517 211.072,59.931 210.653,59.931Z" style="fill-rule:nonzero;"/>
                <path d="M210.653,64.214L199.316,64.214C198.897,64.214 198.476,63.8 198.476,63.385C198.476,62.971 198.897,62.556 199.316,62.556L210.653,62.556C211.072,62.556 211.492,62.971 211.492,63.385C211.492,63.8 211.072,64.214 210.653,64.214Z" style="fill-rule:nonzero;"/>
                <path d="M210.653,68.498L199.316,68.498C198.897,68.498 198.476,68.084 198.476,67.669C198.476,67.254 198.897,66.84 199.316,66.84L210.653,66.84C211.072,66.84 211.492,67.254 211.492,67.669C211.492,68.084 211.072,68.498 210.653,68.498Z" style="fill-rule:nonzero;"/>
                <path d="M210.653,72.782L199.316,72.782C198.897,72.782 198.476,72.367 198.476,71.953C198.476,71.538 198.897,71.124 199.316,71.124L210.653,71.124C211.072,71.124 211.492,71.538 211.492,71.953C211.492,72.505 211.072,72.782 210.653,72.782Z" style="fill-rule:nonzero;"/>
                <path d="M257.81,49.567C256.412,49.567 255.293,50.673 255.293,52.055L255.293,74.578C255.293,75.96 256.412,77.066 257.81,77.066L271.945,77.066C273.344,77.066 274.464,75.96 274.464,74.578L274.464,52.055C274.464,50.673 273.344,49.567 271.945,49.567L257.81,49.567ZM271.945,78.862L257.81,78.862C255.432,78.862 253.474,76.927 253.474,74.578L253.474,52.055C253.474,49.706 255.432,47.771 257.81,47.771L271.945,47.771C274.323,47.771 276.282,49.706 276.282,52.055L276.282,74.578C276.282,76.927 274.323,78.862 271.945,78.862Z" style="fill-rule:nonzero;"/>
                <path d="M265.788,55.509L258.79,55.509C258.371,55.509 257.952,55.095 257.952,54.68C257.952,54.266 258.371,53.851 258.79,53.851L265.788,53.851C266.207,53.851 266.626,54.266 266.626,54.68C266.626,55.095 266.207,55.509 265.788,55.509Z" style="fill-rule:nonzero;"/>
                <path d="M270.125,59.931L258.79,59.931C258.371,59.931 257.952,59.517 257.952,59.102C257.952,58.688 258.231,58.135 258.79,58.135L270.125,58.135C270.545,58.135 270.965,58.549 270.965,58.964C270.965,59.378 270.545,59.931 270.125,59.931Z" style="fill-rule:nonzero;"/>
                <path d="M270.125,64.214L258.79,64.214C258.371,64.214 257.952,63.8 257.952,63.385C257.952,62.971 258.371,62.556 258.79,62.556L270.125,62.556C270.545,62.556 270.965,62.971 270.965,63.385C270.965,63.8 270.545,64.214 270.125,64.214Z" style="fill-rule:nonzero;"/>
                <path d="M270.125,68.498L258.79,68.498C258.371,68.498 257.952,68.084 257.952,67.669C257.952,67.254 258.371,66.84 258.79,66.84L270.125,66.84C270.545,66.84 270.965,67.254 270.965,67.669C270.965,68.084 270.545,68.498 270.125,68.498Z" style="fill-rule:nonzero;"/>
                <path d="M270.125,72.782L258.79,72.782C258.371,72.782 257.952,72.367 257.952,71.953C257.952,71.538 258.371,71.124 258.79,71.124L270.125,71.124C270.545,71.124 270.965,71.538 270.965,71.953C270.965,72.505 270.545,72.782 270.125,72.782Z" style="fill-rule:nonzero;"/>
                <path d="M235.14,65.873C233.182,65.873 231.642,67.393 231.642,69.327C231.642,71.262 233.182,72.782 235.14,72.782C237.099,72.782 238.639,71.262 238.639,69.327C238.639,67.531 237.099,65.873 235.14,65.873ZM235.14,74.578C232.202,74.578 229.823,72.229 229.823,69.327C229.823,66.425 232.202,64.076 235.14,64.076C238.08,64.076 240.458,66.425 240.458,69.327C240.458,72.229 238.08,74.578 235.14,74.578Z" style="fill-rule:nonzero;"/>
                <path d="M254.453,70.294L239.478,70.294C239.059,70.294 238.639,69.88 238.639,69.465C238.639,69.051 239.059,68.636 239.478,68.636L254.313,68.636C254.732,68.636 255.153,69.051 255.153,69.465C255.293,69.88 254.872,70.294 254.453,70.294Z" style="fill-rule:nonzero;"/>
                <path d="M230.802,70.294L215.969,70.294C215.55,70.294 215.129,69.88 215.129,69.465C215.129,69.051 215.55,68.636 215.969,68.636L230.802,68.636C231.223,68.636 231.642,69.051 231.642,69.465C231.642,69.88 231.223,70.294 230.802,70.294Z" style="fill-rule:nonzero;"/>
                <path d="M235.14,65.873C234.721,65.873 234.301,65.458 234.301,65.044L234.301,39.204C234.301,38.789 234.721,38.375 235.14,38.375C235.561,38.375 235.98,38.789 235.98,39.204L235.98,65.044C235.98,65.596 235.561,65.873 235.14,65.873Z" style="fill-rule:nonzero;"/>
                <path d="M255.012,40.033L215.27,40.033C212.751,40.033 210.653,37.96 210.653,35.473L210.653,10.6C210.653,10.186 211.072,9.771 211.492,9.771C211.911,9.771 212.332,10.186 212.332,10.6L212.332,35.473C212.332,36.993 213.591,38.237 215.129,38.237L254.872,38.237C256.412,38.237 257.671,36.993 257.671,35.473L257.671,14.331C257.671,12.811 256.412,11.567 254.872,11.567L230.802,11.567C230.383,11.567 229.963,11.153 229.963,10.738C229.963,10.324 230.243,9.771 230.802,9.771L255.012,9.771C257.531,9.771 259.629,11.844 259.629,14.331L259.629,35.473C259.629,37.96 257.531,40.033 255.012,40.033Z" style="fill-rule:nonzero;"/>
                <path d="M212.472,9.771L229.963,9.771L229.963,7.422C229.963,5.902 228.704,4.658 227.164,4.658L215.41,4.658C213.87,4.658 212.611,5.902 212.611,7.422L212.611,9.771L212.472,9.771ZM230.802,11.567L211.492,11.567C211.072,11.567 210.653,11.153 210.653,10.738L210.653,7.56C210.653,5.073 212.751,3 215.27,3L227.024,3C229.543,3 231.642,5.073 231.642,7.56L231.642,10.738C231.642,11.153 231.223,11.567 230.802,11.567Z" style="fill-rule:nonzero;"/>
                <path d="M258.79,32.294L211.492,32.294C211.072,32.294 210.653,31.88 210.653,31.465C210.653,31.051 211.072,30.636 211.492,30.636L258.79,30.636C259.21,30.636 259.629,31.051 259.629,31.465C259.629,31.88 259.21,32.294 258.79,32.294Z" style="fill-rule:nonzero;"/>
                <path d="M234.301,27.873L211.492,27.873C211.072,27.873 210.653,27.458 210.653,27.044C210.653,26.629 211.072,26.214 211.492,26.214L234.301,26.214C234.721,26.214 235.14,26.629 235.14,27.044C235.14,27.458 234.721,27.873 234.301,27.873Z" style="fill-rule:nonzero;"/>
                <path d="M270.125,7.975C268.166,7.975 266.626,9.495 266.626,11.429C266.626,13.364 268.166,14.884 270.125,14.884C272.085,14.884 273.625,13.364 273.625,11.429C273.625,9.495 272.085,7.975 270.125,7.975ZM270.125,16.68C267.187,16.68 264.809,14.331 264.809,11.429C264.809,8.527 267.187,6.178 270.125,6.178C273.064,6.178 275.444,8.527 275.444,11.429C275.444,14.331 273.064,16.68 270.125,16.68Z" style="fill-rule:nonzero;"/>
                <path d="M201.976,29.669C200.576,29.669 199.316,30.774 199.316,32.294C199.316,33.814 200.437,34.92 201.976,34.92C203.515,34.92 204.635,33.814 204.635,32.294C204.494,30.774 203.375,29.669 201.976,29.669ZM201.976,36.578C199.597,36.578 197.637,34.644 197.637,32.294C197.637,29.945 199.597,28.011 201.976,28.011C204.354,28.011 206.313,29.945 206.313,32.294C206.313,34.644 204.354,36.578 201.976,36.578Z" style="fill-rule:nonzero;"/>
            </g>
        </g>
    </g>
</svg>
