<?xml version="1.0" encoding="UTF-8" standalone="no"?>
<!DOCTYPE svg PUBLIC "-//W3C//DTD SVG 1.1//EN" "http://www.w3.org/Graphics/SVG/1.1/DTD/svg11.dtd">
<svg width="100%" height="100%" viewBox="0 0 277 277" version="1.1" xmlns="http://www.w3.org/2000/svg" xmlns:xlink="http://www.w3.org/1999/xlink" xml:space="preserve" xmlns:serif="http://www.serif.com/" style="fill-rule:evenodd;clip-rule:evenodd;stroke-linejoin:round;stroke-miterlimit:2;">
    <g transform="matrix(1,0,0,1,-1367.08,0)">
        <g id="Artboard2" transform="matrix(1,0,0,1,4563.27,-1715.25)">
            <rect x="-3196.19" y="1715.25" width="276.413" height="276.413" style="fill:none;"/>
            <g transform="matrix(1.80741,0,0,1.80741,-6144.23,1939.13)">
                <g transform="matrix(1,0,0,1,704.36,-92.3746)">
                    <path d="M971.816,56.149C971.816,53.925 973.634,52.119 975.875,52.119L1032.41,52.119C1034.65,52.119 1036.47,53.925 1036.47,56.149L1036.47,65.322C1036.47,67.546 1034.65,69.353 1032.41,69.353L975.875,69.353C973.634,69.353 971.816,67.546 971.816,65.322L971.816,56.149Z" style="fill:rgb(0,108,135);fill-rule:nonzero;"/>
                </g>
                <g transform="matrix(1,0,0,1,704.36,-92.3746)">
                    <path d="M971.816,33.495C971.816,31.271 973.634,29.464 975.875,29.464L1032.41,29.464C1034.65,29.464 1036.47,31.271 1036.47,33.495L1036.47,42.668C1036.47,44.892 1034.65,46.698 1032.41,46.698L975.875,46.698C973.634,46.698 971.816,44.892 971.816,42.668L971.816,33.495Z" style="fill:rgb(0,108,135);fill-rule:nonzero;"/>
                </g>
                <g transform="matrix(1,0,0,1,704.36,-92.3746)">
                    <path d="M971.816,10.98C971.816,8.756 973.634,6.949 975.875,6.949L1032.41,6.949C1034.65,6.949 1036.47,8.756 1036.47,10.98L1036.47,20.153C1036.47,22.376 1034.65,24.183 1032.41,24.183L975.875,24.183C973.634,24.183 971.816,22.376 971.816,20.153L971.816,10.98Z" style="fill:rgb(0,108,135);fill-rule:nonzero;"/>
                </g>
                <g transform="matrix(1,0,0,1,704.36,-92.3746)">
                    <path d="M1019.95,58.095C1021.42,58.095 1022.61,59.276 1022.61,60.735C1022.61,62.193 1021.42,63.376 1019.95,63.376C1018.49,63.376 1017.29,62.193 1017.29,60.735C1017.29,59.276 1018.49,58.095 1019.95,58.095Z" style="fill:rgb(254,90,90);fill-rule:nonzero;"/>
                </g>
                <g transform="matrix(1,0,0,1,704.36,-92.3746)">
                    <path d="M1019.95,35.441C1021.42,35.441 1022.61,36.624 1022.61,38.082C1022.61,39.539 1021.42,40.722 1019.95,40.722C1018.49,40.722 1017.29,39.539 1017.29,38.082C1017.29,36.624 1018.49,35.441 1019.95,35.441Z" style="fill:rgb(254,90,90);fill-rule:nonzero;"/>
                </g>
                <g transform="matrix(1,0,0,1,704.36,-92.3746)">
                    <path d="M1019.95,12.925C1021.42,12.925 1022.61,14.107 1022.61,15.566C1022.61,17.024 1021.42,18.207 1019.95,18.207C1018.49,18.207 1017.29,17.024 1017.29,15.566C1017.29,14.107 1018.49,12.925 1019.95,12.925Z" style="fill:rgb(254,90,90);fill-rule:nonzero;"/>
                </g>
                <g transform="matrix(1,0,0,1,704.36,-92.3746)">
                    <path d="M1011.14,58.095C1012.61,58.095 1013.8,59.276 1013.8,60.735C1013.8,62.193 1012.61,63.376 1011.14,63.376C1009.67,63.376 1008.48,62.193 1008.48,60.735C1008.48,59.276 1009.67,58.095 1011.14,58.095Z" style="fill:rgb(143,226,105);fill-rule:nonzero;"/>
                </g>
                <g transform="matrix(1,0,0,1,704.36,-92.3746)">
                    <path d="M1011.14,35.441C1012.61,35.441 1013.8,36.624 1013.8,38.082C1013.8,39.539 1012.61,40.722 1011.14,40.722C1009.67,40.722 1008.48,39.539 1008.48,38.082C1008.48,36.624 1009.67,35.441 1011.14,35.441Z" style="fill:rgb(143,226,105);fill-rule:nonzero;"/>
                </g>
                <g transform="matrix(1,0,0,1,704.36,-92.3746)">
                    <path d="M1011.14,12.925C1012.61,12.925 1013.8,14.107 1013.8,15.566C1013.8,17.024 1012.61,18.207 1011.14,18.207C1009.67,18.207 1008.48,17.024 1008.48,15.566C1008.48,14.107 1009.67,12.925 1011.14,12.925Z" style="fill:rgb(143,226,105);fill-rule:nonzero;"/>
                </g>
                <g transform="matrix(1,0,0,1,704.36,-92.3746)">
                    <path d="M1041.78,23.349C1043.25,23.349 1044.44,24.532 1044.44,25.99C1044.44,27.448 1043.25,28.631 1041.78,28.631C1040.31,28.631 1039.12,27.448 1039.12,25.99C1039.12,24.532 1040.31,23.349 1041.78,23.349Z" style="fill:rgb(254,193,0);fill-rule:nonzero;"/>
                </g>
                <g transform="matrix(1,0,0,1,704.36,-92.3746)">
                    <path d="M968.318,71.159C970.713,71.159 972.654,73.088 972.654,75.468C972.654,77.847 970.713,79.776 968.318,79.776C965.922,79.776 963.979,77.847 963.979,75.468C963.979,73.088 965.922,71.159 968.318,71.159Z" style="fill:rgb(254,193,0);fill-rule:nonzero;"/>
                </g>
                <g transform="matrix(1,0,0,1,704.36,-92.3746)">
                    <rect x="983.15" y="24.183" width="41.98" height="5.281" style="fill:rgb(0,80,104);fill-rule:nonzero;"/>
                </g>
                <g transform="matrix(1,0,0,1,704.36,-92.3746)">
                    <rect x="983.15" y="46.837" width="41.98" height="5.281" style="fill:rgb(0,80,104);fill-rule:nonzero;"/>
                </g>
                <g transform="matrix(1,0,0,1,704.36,-92.3746)">
                    <rect x="983.15" y="69.353" width="41.98" height="5.281" style="fill:rgb(0,80,104);fill-rule:nonzero;"/>
                </g>
                <g transform="matrix(1,0,0,1,704.36,-92.3746)">
                    <path d="M1040.38,1.668C1041.08,1.668 1041.64,2.228 1041.64,2.919C1041.64,3.61 1041.08,4.17 1040.38,4.17C1039.69,4.17 1039.12,3.61 1039.12,2.919C1039.12,2.228 1039.69,1.668 1040.38,1.668Z" style="fill-rule:nonzero;"/>
                </g>
                <g transform="matrix(1,0,0,1,704.36,-92.3746)">
                    <path d="M1040.38,46.003C1041.08,46.003 1041.64,46.564 1041.64,47.254C1041.64,47.945 1041.08,48.505 1040.38,48.505C1039.69,48.505 1039.12,47.945 1039.12,47.254C1039.12,46.564 1039.69,46.003 1040.38,46.003Z" style="fill-rule:nonzero;"/>
                </g>
                <g transform="matrix(1,0,0,1,704.36,-92.3746)">
                    <path d="M1035.21,72.966C1035.9,72.966 1036.47,73.526 1036.47,74.217C1036.47,74.908 1035.9,75.468 1035.21,75.468C1034.51,75.468 1033.95,74.908 1033.95,74.217C1033.95,73.526 1034.51,72.966 1035.21,72.966Z" style="fill-rule:nonzero;"/>
                </g>
                <g transform="matrix(1,0,0,1,704.36,-92.3746)">
                    <path d="M978.392,0C979.088,0 979.653,0.56 979.653,1.251C979.653,1.942 979.088,2.502 978.392,2.502C977.697,2.502 977.134,1.942 977.134,1.251C977.134,0.56 977.697,0 978.392,0Z" style="fill-rule:nonzero;"/>
                </g>
                <g transform="matrix(1,0,0,1,704.36,-92.3746)">
                    <path d="M966.918,53.787C967.613,53.787 968.178,54.347 968.178,55.038C968.178,55.728 967.613,56.288 966.918,56.288C966.222,56.288 965.659,55.728 965.659,55.038C965.659,54.347 966.222,53.787 966.918,53.787Z" style="fill-rule:nonzero;"/>
                </g>
                <g transform="matrix(1,0,0,1,704.36,-92.3746)">
                    <path d="M966.078,28.63C966.774,28.63 967.338,29.191 967.338,29.881C967.338,30.572 966.774,31.132 966.078,31.132C965.384,31.132 964.818,30.572 964.818,29.881C964.818,29.191 965.384,28.63 966.078,28.63Z" style="fill-rule:nonzero;"/>
                </g>
                <g transform="matrix(1,0,0,1,704.36,-92.3746)">
                    <path d="M1032.41,70.326L1025.13,70.326C1024.71,70.326 1024.29,69.909 1024.29,69.492C1024.29,69.075 1024.71,68.658 1025.13,68.658L1032.41,68.658C1034.23,68.658 1035.63,67.268 1035.63,65.461L1035.63,56.288C1035.63,54.481 1034.23,53.092 1032.41,53.092L1025.13,53.092C1024.71,53.092 1024.29,52.675 1024.29,52.258C1024.29,51.841 1024.71,51.424 1025.13,51.424L1032.41,51.424C1035.21,51.424 1037.45,53.648 1037.45,56.427L1037.45,65.6C1037.45,68.102 1035.21,70.326 1032.41,70.326Z" style="fill-rule:nonzero;"/>
                </g>
                <g transform="matrix(1,0,0,1,704.36,-92.3746)">
                    <path d="M983.15,70.325L975.875,70.325C973.075,70.325 970.837,68.102 970.837,65.322L970.837,56.149C970.837,53.369 973.075,51.146 975.875,51.146L983.15,51.146C983.57,51.146 983.991,51.563 983.991,51.979C983.991,52.396 983.57,52.813 983.15,52.813L975.875,52.813C974.054,52.813 972.654,54.203 972.654,56.01L972.654,65.183C972.654,66.99 974.054,68.379 975.875,68.379L983.15,68.379C983.57,68.379 983.991,68.796 983.991,69.213C983.991,69.908 983.57,70.325 983.15,70.325Z" style="fill-rule:nonzero;"/>
                </g>
                <g transform="matrix(1,0,0,1,704.36,-92.3746)">
                    <path d="M983.991,73.8L1024.29,73.8L1024.29,70.325L983.991,70.325L983.991,73.8ZM1025.13,75.468L983.15,75.468C982.732,75.468 982.311,75.051 982.311,74.634L982.311,69.353C982.311,68.936 982.732,68.519 983.15,68.519L1025.13,68.519C1025.55,68.519 1025.97,68.936 1025.97,69.353L1025.97,74.634C1025.97,75.051 1025.55,75.468 1025.13,75.468Z" style="fill-rule:nonzero;"/>
                </g>
                <g transform="matrix(1,0,0,1,704.36,-92.3746)">
                    <path d="M1004.14,61.57L971.816,61.57C971.396,61.57 970.975,61.153 970.975,60.736C970.975,60.319 971.396,59.902 971.816,59.902L1004.14,59.902C1004.56,59.902 1004.98,60.319 1004.98,60.736C1004.98,61.153 1004.56,61.57 1004.14,61.57Z" style="fill-rule:nonzero;"/>
                </g>
                <g transform="matrix(1,0,0,1,704.36,-92.3746)">
                    <path d="M968.318,71.993C966.359,71.993 964.818,73.522 964.818,75.468C964.818,77.414 966.359,78.942 968.318,78.942C970.276,78.942 971.816,77.414 971.816,75.468C971.816,73.522 970.276,71.993 968.318,71.993ZM968.318,80.749C965.379,80.749 963,78.387 963,75.468C963,72.549 965.379,70.187 968.318,70.187C971.256,70.187 973.634,72.549 973.634,75.468C973.634,78.387 971.116,80.749 968.318,80.749Z" style="fill-rule:nonzero;"/>
                </g>
                <g transform="matrix(1,0,0,1,704.36,-92.3746)">
                    <path d="M1011.14,58.929C1010.16,58.929 1009.32,59.763 1009.32,60.736C1009.32,61.709 1010.16,62.543 1011.14,62.543C1012.12,62.543 1012.96,61.709 1012.96,60.736C1012.96,59.763 1012.12,58.929 1011.14,58.929ZM1011.14,64.21C1009.18,64.21 1007.64,62.682 1007.64,60.736C1007.64,58.79 1009.18,57.261 1011.14,57.261C1013.1,57.261 1014.64,58.79 1014.64,60.736C1014.64,62.682 1013.1,64.21 1011.14,64.21Z" style="fill-rule:nonzero;"/>
                </g>
                <g transform="matrix(1,0,0,1,704.36,-92.3746)">
                    <path d="M1019.95,58.929C1018.98,58.929 1018.13,59.763 1018.13,60.736C1018.13,61.709 1018.98,62.543 1019.95,62.543C1020.93,62.543 1021.77,61.709 1021.77,60.736C1021.63,59.763 1020.79,58.929 1019.95,58.929ZM1019.95,64.21C1017.99,64.21 1016.45,62.682 1016.45,60.736C1016.45,58.79 1017.99,57.261 1019.95,57.261C1021.91,57.261 1023.45,58.79 1023.45,60.736C1023.45,62.682 1021.77,64.21 1019.95,64.21Z" style="fill-rule:nonzero;"/>
                </g>
                <g transform="matrix(1,0,0,1,704.36,-92.3746)">
                    <path d="M1036.47,61.57L1026.81,61.57C1026.39,61.57 1025.97,61.153 1025.97,60.736C1025.97,60.319 1026.39,59.902 1026.81,59.902L1036.47,59.902C1036.89,59.902 1037.31,60.319 1037.31,60.736C1037.45,61.153 1037.03,61.57 1036.47,61.57Z" style="fill-rule:nonzero;"/>
                </g>
                <g transform="matrix(1,0,0,1,704.36,-92.3746)">
                    <path d="M1032.41,47.671L1025.13,47.671C1024.71,47.671 1024.29,47.254 1024.29,46.837C1024.29,46.42 1024.71,46.004 1025.13,46.004L1032.41,46.004C1034.23,46.004 1035.63,44.614 1035.63,42.807L1035.63,33.634C1035.63,31.827 1034.23,30.437 1032.41,30.437L1025.13,30.437C1024.71,30.437 1024.29,30.02 1024.29,29.603C1024.29,29.186 1024.71,28.77 1025.13,28.77L1032.41,28.77C1035.21,28.77 1037.45,30.993 1037.45,33.773L1037.45,42.946C1037.45,45.448 1035.21,47.671 1032.41,47.671Z" style="fill-rule:nonzero;"/>
                </g>
                <g transform="matrix(1,0,0,1,704.36,-92.3746)">
                    <path d="M983.15,47.671L975.875,47.671C973.075,47.671 970.837,45.448 970.837,42.668L970.837,33.495C970.837,30.715 973.075,28.492 975.875,28.492L983.15,28.492C983.57,28.492 983.991,28.909 983.991,29.326C983.991,29.743 983.57,30.16 983.15,30.16L975.875,30.16C974.054,30.16 972.654,31.549 972.654,33.356L972.654,42.529C972.654,44.336 974.054,45.726 975.875,45.726L983.15,45.726C983.57,45.726 983.991,46.143 983.991,46.56C983.991,46.976 983.57,47.671 983.15,47.671Z" style="fill-rule:nonzero;"/>
                </g>
                <g transform="matrix(1,0,0,1,704.36,-92.3746)">
                    <path d="M983.991,51.146L1024.29,51.146L1024.29,47.671L983.991,47.671L983.991,51.146ZM1025.13,52.953L983.15,52.953C982.732,52.953 982.311,52.536 982.311,52.119L982.311,46.837C982.311,46.42 982.732,46.003 983.15,46.003L1025.13,46.003C1025.55,46.003 1025.97,46.42 1025.97,46.837L1025.97,52.119C1025.97,52.536 1025.55,52.953 1025.13,52.953Z" style="fill-rule:nonzero;"/>
                </g>
                <g transform="matrix(1,0,0,1,704.36,-92.3746)">
                    <path d="M1004.14,39.054L971.816,39.054C971.396,39.054 970.975,38.637 970.975,38.22C970.975,37.803 971.396,37.386 971.816,37.386L1004.14,37.386C1004.56,37.386 1004.98,37.803 1004.98,38.22C1004.98,38.637 1004.56,39.054 1004.14,39.054Z" style="fill-rule:nonzero;"/>
                </g>
                <g transform="matrix(1,0,0,1,704.36,-92.3746)">
                    <path d="M1011.14,36.414C1010.16,36.414 1009.32,37.248 1009.32,38.221C1009.32,39.193 1010.16,40.027 1011.14,40.027C1012.12,40.027 1012.96,39.193 1012.96,38.221C1012.96,37.248 1012.12,36.414 1011.14,36.414ZM1011.14,41.556C1009.18,41.556 1007.64,40.027 1007.64,38.082C1007.64,36.136 1009.18,34.607 1011.14,34.607C1013.1,34.607 1014.64,36.136 1014.64,38.082C1014.64,40.027 1013.1,41.556 1011.14,41.556Z" style="fill-rule:nonzero;"/>
                </g>
                <g transform="matrix(1,0,0,1,704.36,-92.3746)">
                    <path d="M1019.95,36.414C1018.98,36.414 1018.13,37.248 1018.13,38.221C1018.13,39.193 1018.98,40.027 1019.95,40.027C1020.93,40.027 1021.77,39.193 1021.77,38.221C1021.77,37.248 1020.79,36.414 1019.95,36.414ZM1019.95,41.556C1017.99,41.556 1016.45,40.027 1016.45,38.082C1016.45,36.136 1017.99,34.607 1019.95,34.607C1021.91,34.607 1023.45,36.136 1023.45,38.082C1023.45,40.027 1021.77,41.556 1019.95,41.556Z" style="fill-rule:nonzero;"/>
                </g>
                <g transform="matrix(1,0,0,1,704.36,-92.3746)">
                    <path d="M1036.47,39.054L1026.81,39.054C1026.39,39.054 1025.97,38.637 1025.97,38.22C1025.97,37.803 1026.39,37.386 1026.81,37.386L1036.47,37.386C1036.89,37.386 1037.31,37.803 1037.31,38.22C1037.45,38.637 1037.03,39.054 1036.47,39.054Z" style="fill-rule:nonzero;"/>
                </g>
                <g transform="matrix(1,0,0,1,704.36,-92.3746)">
                    <path d="M1032.41,25.156L1025.13,25.156C1024.71,25.156 1024.29,24.739 1024.29,24.322C1024.29,23.905 1024.71,23.488 1025.13,23.488L1032.41,23.488C1034.23,23.488 1035.63,22.099 1035.63,20.292L1035.63,11.119C1035.63,9.312 1034.23,7.922 1032.41,7.922L975.875,7.922C974.054,7.922 972.654,9.312 972.654,11.119L972.654,20.153C972.654,21.959 974.054,23.349 975.875,23.349L983.15,23.349C983.57,23.349 983.991,23.766 983.991,24.183C983.991,24.6 983.57,25.017 983.15,25.017L975.875,25.017C973.075,25.017 970.837,22.793 970.837,20.014L970.837,10.841C970.837,8.061 973.075,5.837 975.875,5.837L1032.41,5.837C1035.21,5.837 1037.45,8.061 1037.45,10.841L1037.45,20.153C1037.45,22.932 1035.21,25.156 1032.41,25.156Z" style="fill-rule:nonzero;"/>
                </g>
                <g transform="matrix(1,0,0,1,704.36,-92.3746)">
                    <path d="M983.991,28.631L1024.29,28.631L1024.29,25.156L983.991,25.156L983.991,28.631ZM1025.13,30.298L983.15,30.298C982.732,30.298 982.311,29.881 982.311,29.464L982.311,24.183C982.311,23.766 982.732,23.349 983.15,23.349L1025.13,23.349C1025.55,23.349 1025.97,23.766 1025.97,24.183L1025.97,29.464C1025.97,29.881 1025.55,30.298 1025.13,30.298Z" style="fill-rule:nonzero;"/>
                </g>
                <g transform="matrix(1,0,0,1,704.36,-92.3746)">
                    <path d="M1004.14,16.4L971.816,16.4C971.396,16.4 970.975,15.983 970.975,15.566C970.975,15.149 971.396,14.732 971.816,14.732L1004.14,14.732C1004.56,14.732 1004.98,15.149 1004.98,15.566C1004.98,15.983 1004.56,16.4 1004.14,16.4Z" style="fill-rule:nonzero;"/>
                </g>
                <g transform="matrix(1,0,0,1,704.36,-92.3746)">
                    <path d="M1011.14,13.759C1010.16,13.759 1009.32,14.593 1009.32,15.566C1009.32,16.539 1010.16,17.373 1011.14,17.373C1012.12,17.373 1012.96,16.539 1012.96,15.566C1012.96,14.593 1012.12,13.759 1011.14,13.759ZM1011.14,19.041C1009.18,19.041 1007.64,17.512 1007.64,15.566C1007.64,13.62 1009.18,12.091 1011.14,12.091C1013.1,12.091 1014.64,13.62 1014.64,15.566C1014.64,17.512 1013.1,19.041 1011.14,19.041Z" style="fill-rule:nonzero;"/>
                </g>
                <g transform="matrix(1,0,0,1,704.36,-92.3746)">
                    <path d="M1019.95,13.759C1018.98,13.759 1018.13,14.593 1018.13,15.566C1018.13,16.539 1018.98,17.373 1019.95,17.373C1020.93,17.373 1021.77,16.539 1021.77,15.566C1021.63,14.593 1020.79,13.759 1019.95,13.759ZM1019.95,19.041C1017.99,19.041 1016.45,17.512 1016.45,15.566C1016.45,13.62 1017.99,12.091 1019.95,12.091C1021.91,12.091 1023.45,13.62 1023.45,15.566C1023.45,17.512 1021.77,19.041 1019.95,19.041Z" style="fill-rule:nonzero;"/>
                </g>
                <g transform="matrix(1,0,0,1,704.36,-92.3746)">
                    <path d="M1036.47,16.4L1026.81,16.4C1026.39,16.4 1025.97,15.983 1025.97,15.566C1025.97,15.149 1026.39,14.732 1026.81,14.732L1036.47,14.732C1036.89,14.732 1037.31,15.149 1037.31,15.566C1037.45,15.983 1037.03,16.4 1036.47,16.4Z" style="fill-rule:nonzero;"/>
                </g>
                <g transform="matrix(1,0,0,1,704.36,-92.3746)">
                    <path d="M1041.78,24.183C1040.8,24.183 1039.97,25.017 1039.97,25.99C1039.97,26.963 1040.8,27.797 1041.78,27.797C1042.76,27.797 1043.6,26.963 1043.6,25.99C1043.6,25.017 1042.76,24.183 1041.78,24.183ZM1041.78,29.464C1039.82,29.464 1038.29,27.936 1038.29,25.99C1038.29,24.044 1039.82,22.515 1041.78,22.515C1043.74,22.515 1045.28,24.044 1045.28,25.99C1045.28,27.936 1043.74,29.464 1041.78,29.464Z" style="fill-rule:nonzero;"/>
                </g>
            </g>
        </g>
    </g>
</svg>
