<?xml version="1.0" encoding="UTF-8" standalone="no"?>
<!DOCTYPE svg PUBLIC "-//W3C//DTD SVG 1.1//EN" "http://www.w3.org/Graphics/SVG/1.1/DTD/svg11.dtd">
<svg width="100%" height="100%" viewBox="0 0 277 277" version="1.1" xmlns="http://www.w3.org/2000/svg" xmlns:xlink="http://www.w3.org/1999/xlink" xml:space="preserve" xmlns:serif="http://www.serif.com/" style="fill-rule:evenodd;clip-rule:evenodd;stroke-linejoin:round;stroke-miterlimit:2;">
    <g id="Artboard2" transform="matrix(1,0,0,1,3196.19,-1715.25)">
        <rect x="-3196.19" y="1715.25" width="276.413" height="276.413" style="fill:none;"/>
        <g transform="matrix(2.30402,0,0,2.30402,-3157.54,1750.68)">
            <path d="M76.004,5.625C77.956,5.625 79.536,7.172 79.536,9.08C79.536,10.988 77.956,12.535 76.004,12.535C74.054,12.535 72.474,10.988 72.474,9.08C72.474,7.172 74.054,5.625 76.004,5.625Z" style="fill:rgb(254,193,0);fill-rule:nonzero;"/>
            <path d="M6.216,67.669C9.181,67.669 11.584,70.019 11.584,72.92C11.584,75.82 9.181,78.171 6.216,78.171C3.251,78.171 0.848,75.82 0.848,72.92C0.848,70.019 3.251,67.669 6.216,67.669Z" style="fill:rgb(254,193,0);fill-rule:nonzero;"/>
            <path d="M53.118,38.375L53.118,54.818L46.903,54.818L46.903,41L53.118,38.375Z" style="fill:rgb(229,0,88);fill-rule:nonzero;"/>
            <path d="M40.687,43.626L40.687,54.818L34.471,54.818L34.471,46.113L40.687,43.626Z" style="fill:rgb(229,0,88);fill-rule:nonzero;"/>
            <path d="M78.266,18.615C78.968,18.615 79.536,19.172 79.536,19.858C79.536,20.545 78.968,21.102 78.266,21.102C77.563,21.102 76.995,20.545 76.995,19.858C76.995,19.172 77.563,18.615 78.266,18.615Z" style="fill-rule:nonzero;"/>
            <path d="M78.266,60.898C78.968,60.898 79.536,61.455 79.536,62.142C79.536,62.828 78.968,63.385 78.266,63.385C77.563,63.385 76.995,62.828 76.995,62.142C76.995,61.455 77.563,60.898 78.266,60.898Z" style="fill-rule:nonzero;"/>
            <path d="M64.138,41.829C64.138,29.669 53.967,19.72 41.535,19.72C29.103,19.72 18.93,29.669 18.93,41.829C18.93,53.989 29.103,63.938 41.535,63.938C53.967,63.938 64.138,53.989 64.138,41.829ZM78.266,38.513L73.038,41.829L78.266,45.146C77.841,49.291 76.711,53.298 75.016,56.891L68.801,57.306L71.625,62.695C69.223,66.011 66.257,68.913 62.867,71.262L57.356,68.498L56.933,74.578C53.26,76.236 49.163,77.342 44.926,77.756L41.535,72.644L38.144,77.756C33.906,77.342 29.808,76.236 26.135,74.578L25.712,68.498L20.201,71.262C16.812,68.913 13.845,66.011 11.443,62.695L14.269,57.306L8.053,56.891C6.357,53.298 5.227,49.291 4.804,45.146L10.03,41.829L4.804,38.513C5.227,34.367 6.357,30.36 8.053,26.767L14.269,26.491L11.443,21.102C13.845,17.786 16.812,14.884 20.201,12.535L25.712,15.298L26.135,9.218C29.808,7.56 33.906,6.455 38.144,6.04L41.535,11.153L44.926,6.04C49.163,6.455 53.26,7.56 56.933,9.218L57.356,15.298L62.867,12.535C66.257,14.884 69.223,17.786 71.625,21.102L68.801,26.491L75.016,26.767C76.711,30.498 77.841,34.367 78.266,38.513Z" style="fill:rgb(60,186,235);fill-rule:nonzero;"/>
            <path d="M66.822,75.545C67.525,75.545 68.095,76.102 68.095,76.789C68.095,77.476 67.525,78.033 66.822,78.033C66.121,78.033 65.551,77.476 65.551,76.789C65.551,76.102 66.121,75.545 66.822,75.545Z" style="fill-rule:nonzero;"/>
            <path d="M46.903,41L46.903,54.818L40.687,54.818L40.687,43.625L46.903,41Z" style="fill:rgb(254,90,90);fill-rule:nonzero;"/>
            <path d="M34.471,46.113L34.471,54.818L28.396,54.818L28.396,48.738L34.471,46.113Z" style="fill:rgb(254,90,90);fill-rule:nonzero;"/>
            <path d="M19.919,3C20.622,3 21.191,3.557 21.191,4.244C21.191,4.93 20.622,5.487 19.919,5.487C19.217,5.487 18.648,4.93 18.648,4.244C18.648,3.557 19.217,3 19.919,3Z" style="fill-rule:nonzero;"/>
            <path d="M19.919,76.513C20.622,76.513 21.191,77.07 21.191,77.756C21.191,78.443 20.622,79 19.919,79C19.217,79 18.648,78.443 18.648,77.756C18.648,77.07 19.217,76.513 19.919,76.513Z" style="fill-rule:nonzero;"/>
            <path d="M6.782,13.364C7.483,13.364 8.053,13.921 8.053,14.607C8.053,15.294 7.483,15.851 6.782,15.851C6.079,15.851 5.509,15.294 5.509,14.607C5.509,13.921 6.079,13.364 6.782,13.364Z" style="fill-rule:nonzero;"/>
            <path d="M27.124,74.025C30.515,75.546 34.047,76.375 37.861,76.789L40.969,72.091C41.11,71.815 41.394,71.676 41.676,71.676C41.958,71.676 42.24,71.815 42.383,72.091L45.49,76.789C49.163,76.375 52.836,75.407 56.227,74.025L56.51,68.498C56.51,68.222 56.651,67.946 56.933,67.807C57.215,67.669 57.499,67.669 57.781,67.807L62.867,70.295C65.833,68.084 68.518,65.596 70.636,62.695L68.095,57.72C67.952,57.444 67.952,57.167 68.095,56.891C68.234,56.615 68.518,56.476 68.801,56.476L74.452,56.2C76.004,52.884 76.852,49.429 77.277,45.698L72.474,42.658C72.191,42.52 72.05,42.244 72.05,41.967C72.05,41.691 72.191,41.414 72.474,41.276L77.277,38.236C76.852,34.644 75.864,31.051 74.452,27.735L68.801,27.458C68.518,27.458 68.234,27.32 68.095,27.044C67.952,26.767 67.952,26.491 68.095,26.215L70.636,21.24C68.518,18.338 65.833,15.713 62.867,13.64L57.781,16.127C57.499,16.265 57.215,16.265 56.933,16.127C56.651,15.989 56.51,15.713 56.51,15.436L56.227,9.909C52.836,8.389 49.305,7.56 45.49,7.145L42.383,11.567C42.24,11.844 41.958,11.982 41.676,11.982C41.394,11.982 41.11,11.844 40.969,11.567L37.861,6.869C34.189,7.284 30.515,8.251 27.124,9.633L26.842,15.16C26.842,15.436 26.701,15.713 26.419,15.851C26.135,15.989 25.853,15.989 25.571,15.851L20.485,13.364C17.518,15.575 14.834,18.062 12.714,20.964L15.257,25.938C15.398,26.215 15.398,26.491 15.257,26.767C15.116,27.044 14.834,27.182 14.551,27.182L8.9,27.458C7.346,30.775 6.498,34.367 6.075,37.96L10.878,41C11.16,41.138 11.302,41.415 11.302,41.691C11.302,41.967 11.16,42.244 10.878,42.382L6.075,45.422C6.498,49.015 7.487,52.607 8.9,55.924L14.551,56.2C14.834,56.2 15.116,56.338 15.257,56.615C15.398,56.891 15.398,57.167 15.257,57.444L12.714,62.418C14.834,65.32 17.518,67.946 20.485,70.018L25.571,67.531C25.853,67.393 26.135,67.393 26.419,67.531C26.701,67.669 26.842,67.945 26.842,68.222L27.124,74.025ZM45.067,78.585C44.783,78.585 44.501,78.447 44.36,78.171L41.676,74.164L38.992,78.171C38.849,78.447 38.567,78.585 38.144,78.585C33.906,78.171 29.808,77.066 25.853,75.407C25.571,75.269 25.43,74.993 25.287,74.716L25.005,70.018L20.626,72.091C20.344,72.229 19.919,72.229 19.778,72.091C16.246,69.604 13.28,66.702 10.878,63.247C10.737,62.971 10.596,62.695 10.878,62.418L12.998,58.135L8.194,57.858C7.911,57.858 7.628,57.582 7.487,57.306C5.65,53.575 4.662,49.429 4.239,45.284C4.239,45.007 4.38,44.593 4.662,44.455L8.759,41.829L4.662,39.204C4.38,39.065 4.239,38.789 4.239,38.375C4.662,34.229 5.793,30.222 7.487,26.353C7.628,26.076 7.911,25.8 8.194,25.8L12.998,25.524L10.878,21.24C10.737,20.964 10.737,20.549 10.878,20.411C13.28,16.956 16.387,14.055 19.778,11.567C20.06,11.429 20.344,11.291 20.626,11.567L25.005,13.778L25.287,9.08C25.287,8.804 25.571,8.527 25.853,8.389C29.667,6.593 33.906,5.625 38.144,5.211C38.426,5.211 38.849,5.349 38.992,5.625L41.676,9.633L44.36,5.625C44.501,5.349 44.783,5.211 45.208,5.211C49.445,5.625 53.542,6.731 57.499,8.389C57.781,8.527 57.922,8.804 58.063,9.08L58.345,13.778L62.725,11.567C63.008,11.429 63.431,11.429 63.574,11.567C67.106,14.055 70.072,16.956 72.614,20.411C72.756,20.687 72.897,20.964 72.614,21.24L70.354,25.524L75.299,25.8C75.581,25.8 75.864,26.076 76.004,26.353C77.841,30.222 78.83,34.229 79.254,38.375C79.254,38.651 79.113,39.065 78.83,39.204L74.734,41.829L78.83,44.455C79.113,44.593 79.254,44.869 79.254,45.284C78.83,49.429 77.701,53.575 76.004,57.306C75.864,57.582 75.581,57.72 75.299,57.858L70.497,58.135L72.756,62.418C72.897,62.695 72.897,63.109 72.756,63.247C70.354,66.702 67.245,69.604 63.856,72.091C63.574,72.229 63.29,72.367 63.008,72.091L58.629,69.88L58.345,74.578C58.345,74.855 58.063,75.131 57.781,75.269C53.542,77.066 49.305,78.171 45.067,78.585Z" style="fill-rule:nonzero;"/>
            <path d="M41.535,20.688C29.526,20.688 19.778,30.222 19.778,41.968C19.778,53.713 29.667,63.109 41.535,63.109C53.401,63.109 63.29,53.575 63.29,41.829C63.29,30.084 53.542,20.688 41.535,20.688ZM41.535,64.768C28.537,64.768 18.083,54.404 18.083,41.829C18.083,29.255 28.678,18.891 41.535,18.891C54.531,18.891 64.986,29.255 64.986,41.829C65.127,54.542 54.531,64.768 41.535,64.768Z" style="fill-rule:nonzero;"/>
            <path d="M76.004,6.455C74.593,6.455 73.32,7.56 73.32,9.08C73.32,10.462 74.452,11.706 76.004,11.706C77.559,11.706 78.69,10.6 78.69,9.08C78.69,7.56 77.418,6.455 76.004,6.455ZM76.004,13.364C73.603,13.364 71.625,11.429 71.625,9.08C71.625,6.731 73.603,4.796 76.004,4.796C78.407,4.796 80.385,6.731 80.385,9.08C80.385,11.429 78.407,13.364 76.004,13.364Z" style="fill-rule:nonzero;"/>
            <path d="M6.216,68.636C3.814,68.636 1.836,70.571 1.836,72.92C1.836,75.269 3.814,77.204 6.216,77.204C8.617,77.204 10.596,75.269 10.596,72.92C10.737,70.571 8.759,68.636 6.216,68.636ZM6.216,79C2.825,79 0,76.236 0,72.92C0,69.604 2.825,66.84 6.216,66.84C9.605,66.84 12.432,69.604 12.432,72.92C12.432,76.236 9.605,79 6.216,79Z" style="fill-rule:nonzero;"/>
            <path d="M53.118,55.647L46.903,55.647C46.479,55.647 46.056,55.233 46.056,54.818C46.056,54.404 46.479,53.989 46.903,53.989L52.272,53.989L52.272,39.756L47.326,41.829C46.903,41.967 46.338,41.829 46.197,41.414C46.056,41 46.197,40.447 46.621,40.309L52.836,37.684C53.118,37.545 53.401,37.545 53.684,37.822C53.967,37.96 54.108,38.236 54.108,38.513L54.108,54.956C53.967,55.233 53.542,55.647 53.118,55.647Z" style="fill-rule:nonzero;"/>
            <path d="M46.903,55.647L40.687,55.647C40.263,55.647 39.839,55.233 39.839,54.818C39.839,54.404 40.263,53.989 40.687,53.989L46.056,53.989L46.056,42.382L41.11,44.455C40.687,44.593 40.122,44.455 39.981,44.04C39.839,43.625 39.981,43.073 40.404,42.935L46.621,40.309C46.903,40.171 47.185,40.171 47.467,40.447C47.75,40.585 47.892,40.862 47.892,41.138L47.892,54.956C47.75,55.233 47.326,55.647 46.903,55.647Z" style="fill-rule:nonzero;"/>
            <path d="M40.687,55.647L34.471,55.647C34.047,55.647 33.623,55.233 33.623,54.818C33.623,54.404 34.047,53.989 34.471,53.989L39.839,53.989L39.839,44.869L34.894,46.942C34.471,47.08 33.906,46.942 33.764,46.527C33.623,46.113 33.764,45.56 34.189,45.422L40.404,42.796C40.687,42.658 40.969,42.658 41.251,42.935C41.535,43.073 41.676,43.349 41.676,43.625L41.676,54.818C41.535,55.233 41.251,55.647 40.687,55.647Z" style="fill-rule:nonzero;"/>
            <path d="M29.244,53.989L33.623,53.989L33.623,47.495L29.244,49.291L29.244,53.989ZM34.471,55.647L28.255,55.647C27.831,55.647 27.407,55.233 27.407,54.818L27.407,48.738C27.407,48.324 27.548,48.047 27.972,47.909L34.189,45.284C34.471,45.146 34.753,45.145 35.035,45.422C35.319,45.56 35.46,45.836 35.46,46.113L35.46,54.818C35.46,55.233 35.035,55.647 34.471,55.647Z" style="fill-rule:nonzero;"/>
            <path d="M26.56,42.658C26.276,42.658 26.135,42.52 25.994,42.382C25.712,42.106 25.712,41.553 25.994,41.138L33.482,33.815C33.765,33.538 34.33,33.538 34.753,33.815L38.567,37.545L49.87,26.491C50.152,26.215 50.717,26.215 51.14,26.491C51.422,26.767 51.422,27.32 51.14,27.735L39.274,39.342C38.992,39.618 38.426,39.618 38.002,39.342L34.189,35.611L27.266,42.382C26.983,42.658 26.842,42.658 26.56,42.658Z" style="fill-rule:nonzero;"/>
            <path d="M50.434,32.294C50.012,32.294 49.587,31.88 49.587,31.465L49.587,28.011L46.056,28.011C45.631,28.011 45.208,27.596 45.208,27.182C45.208,26.767 45.631,26.353 46.056,26.353L50.434,26.353C50.858,26.353 51.283,26.767 51.283,27.182L51.283,31.465C51.283,32.018 50.858,32.294 50.434,32.294Z" style="fill-rule:nonzero;"/>
        </g>
    </g>
</svg>
