<?xml version="1.0" encoding="UTF-8" standalone="no"?>
<!DOCTYPE svg PUBLIC "-//W3C//DTD SVG 1.1//EN" "http://www.w3.org/Graphics/SVG/1.1/DTD/svg11.dtd">
<svg width="100%" height="100%" viewBox="0 0 277 277" version="1.1" xmlns="http://www.w3.org/2000/svg" xmlns:xlink="http://www.w3.org/1999/xlink" xml:space="preserve" xmlns:serif="http://www.serif.com/" style="fill-rule:evenodd;clip-rule:evenodd;stroke-linejoin:round;stroke-miterlimit:2;">
    <g transform="matrix(1,0,0,1,-1015.87,0)">
        <g id="Artboard2" transform="matrix(1,0,0,1,4212.06,-1715.25)">
            <rect x="-3196.19" y="1715.25" width="276.413" height="276.413" style="fill:none;"/>
            <g transform="matrix(2.05583,0,0,2.05583,-4714.04,1761.71)">
                <path d="M848.954,47.08L848.954,53.022C848.954,55.509 846.99,57.444 844.467,57.444L776.329,57.444C773.805,57.444 771.841,55.509 771.841,53.022L771.841,47.08L848.954,47.08Z" style="fill:rgb(0,80,104);fill-rule:nonzero;"/>
                <path d="M844.467,3.829L776.329,3.829C773.805,3.829 771.841,5.764 771.841,8.251L771.841,46.942L848.954,46.942L848.954,8.251C848.954,5.902 846.99,3.829 844.467,3.829Z" style="fill:rgb(0,108,135);fill-rule:nonzero;"/>
                <path d="M847.691,73.887C848.388,73.887 848.954,74.444 848.954,75.131C848.954,75.818 848.388,76.375 847.691,76.375C846.994,76.375 846.43,75.818 846.43,75.131C846.43,74.444 846.994,73.887 847.691,73.887Z" style="fill-rule:nonzero;"/>
                <path d="M841.102,63.523C843.503,63.523 845.449,65.442 845.449,67.807C845.449,70.173 843.503,72.091 841.102,72.091C838.702,72.091 836.756,70.173 836.756,67.807C836.756,65.442 838.702,63.523 841.102,63.523Z" style="fill:rgb(254,193,0);fill-rule:nonzero;"/>
                <rect x="777.17" y="9.08" width="66.596" height="38" style="fill:rgb(233,239,255);fill-rule:nonzero;"/>
                <path d="M830.167,66.978C830.864,66.978 831.428,67.535 831.428,68.222C831.428,68.909 830.864,69.465 830.167,69.465C829.47,69.465 828.906,68.909 828.906,68.222C828.906,67.535 829.47,66.978 830.167,66.978Z" style="fill-rule:nonzero;"/>
                <rect x="823.577" y="18.615" width="7.011" height="11.193" style="fill:rgb(229,0,88);fill-rule:nonzero;"/>
                <rect x="813.903" y="57.444" width="6.17" height="14.647" style="fill:rgb(0,108,135);fill-rule:nonzero;"/>
                <rect x="812.22" y="23.727" width="7.01" height="11.193" style="fill:rgb(254,90,90);fill-rule:nonzero;"/>
                <path d="M811.66,51.087C811.94,51.364 812.22,51.778 812.22,52.331C812.22,52.884 812.08,53.298 811.66,53.575C811.379,53.851 810.959,54.127 810.397,54.127C809.416,54.127 808.575,53.298 808.575,52.331C808.575,51.917 808.715,51.364 809.136,51.087C809.556,50.811 809.836,50.535 810.397,50.535C810.959,50.535 811.379,50.673 811.66,51.087Z" style="fill-rule:nonzero;"/>
                <rect x="800.723" y="18.615" width="7.011" height="11.193" style="fill:rgb(229,0,88);fill-rule:nonzero;"/>
                <rect x="800.723" y="57.444" width="6.169" height="14.647" style="fill:rgb(0,108,135);fill-rule:nonzero;"/>
                <rect x="789.367" y="23.727" width="7.01" height="11.193" style="fill:rgb(254,90,90);fill-rule:nonzero;"/>
                <path d="M795.116,62.694C795.813,62.694 796.377,63.251 796.377,63.938C796.377,64.623 795.813,65.182 795.116,65.182C794.419,65.182 793.855,64.623 793.855,63.938C793.855,63.251 794.419,62.694 795.116,62.694Z" style="fill-rule:nonzero;"/>
                <path d="M783.198,66.84C786.14,66.84 788.526,69.19 788.526,72.091C788.526,74.99 786.14,77.342 783.198,77.342C780.257,77.342 777.87,74.99 777.87,72.091C777.87,69.19 780.257,66.84 783.198,66.84Z" style="fill:rgb(254,193,0);fill-rule:nonzero;"/>
                <path d="M774.085,65.32C774.782,65.32 775.348,65.877 775.348,66.563C775.348,67.25 774.782,67.807 774.085,67.807C773.388,67.807 772.824,67.25 772.824,66.563C772.824,65.877 773.388,65.32 774.085,65.32Z" style="fill-rule:nonzero;"/>
                <path d="M844.467,58.273L820.073,58.273C819.652,58.273 819.23,57.858 819.23,57.444C819.23,57.029 819.652,56.615 820.073,56.615L844.467,56.615C846.43,56.615 848.112,54.956 848.112,53.022L848.112,8.251C848.112,6.316 846.43,4.658 844.467,4.658L776.329,4.658C774.367,4.658 772.684,6.316 772.684,8.251L772.684,52.884C772.684,54.818 774.367,56.476 776.329,56.476L800.723,56.476C801.145,56.476 801.565,56.891 801.565,57.305C801.565,57.72 801.145,58.135 800.723,58.135L776.329,58.135C773.384,58.135 771,55.786 771,52.884L771,8.251C771,5.349 773.384,3 776.329,3L844.467,3C847.411,3 849.795,5.349 849.795,8.251L849.795,52.884C849.795,55.924 847.411,58.273 844.467,58.273Z" style="fill-rule:nonzero;"/>
                <path d="M843.766,47.909C843.346,47.909 842.925,47.495 842.925,47.08L842.925,9.909L778.01,9.909L778.01,47.08C778.01,47.495 777.59,47.909 777.17,47.909C776.749,47.909 776.329,47.495 776.329,47.08L776.329,9.08C776.329,8.666 776.749,8.251 777.17,8.251L843.766,8.251C844.186,8.251 844.607,8.666 844.607,9.08L844.607,47.08C844.607,47.495 844.186,47.909 843.766,47.909Z" style="fill-rule:nonzero;"/>
                <path d="M820.073,72.92C819.652,72.92 819.23,72.506 819.23,72.091L819.23,58.273L813.903,58.273C813.483,58.273 813.061,57.858 813.061,57.444C813.061,57.029 813.483,56.615 813.903,56.615L820.073,56.615C820.491,56.615 820.913,57.029 820.913,57.444L820.913,72.091C820.913,72.644 820.491,72.92 820.073,72.92Z" style="fill-rule:nonzero;"/>
                <path d="M800.723,72.92C800.303,72.92 799.882,72.506 799.882,72.091L799.882,57.444C799.882,57.029 800.303,56.615 800.723,56.615L806.892,56.615C807.314,56.615 807.734,57.029 807.734,57.444C807.734,57.858 807.314,58.273 806.892,58.273L801.565,58.273L801.565,72.091C801.705,72.644 801.285,72.92 800.723,72.92Z" style="fill-rule:nonzero;"/>
                <path d="M813.903,72.92C813.483,72.92 813.061,72.506 813.061,72.091L813.061,58.273L807.734,58.273L807.734,72.091C807.734,72.506 807.314,72.92 806.892,72.92C806.472,72.92 806.051,72.506 806.051,72.091L806.051,57.444C806.051,57.029 806.472,56.615 806.892,56.615L813.903,56.615C814.324,56.615 814.744,57.029 814.744,57.444L814.744,72.091C814.744,72.644 814.324,72.92 813.903,72.92Z" style="fill-rule:nonzero;"/>
                <path d="M841.102,64.353C839.138,64.353 837.597,65.873 837.597,67.807C837.597,69.742 839.138,71.262 841.102,71.262C843.065,71.262 844.607,69.742 844.607,67.807C844.607,65.873 843.065,64.353 841.102,64.353ZM841.102,72.92C838.157,72.92 835.774,70.571 835.774,67.669C835.774,64.767 838.157,62.418 841.102,62.418C844.046,62.418 846.43,64.767 846.43,67.669C846.43,70.571 843.906,72.92 841.102,72.92Z" style="fill-rule:nonzero;"/>
                <path d="M783.198,67.807C780.815,67.807 778.851,69.742 778.851,72.091C778.851,74.44 780.815,76.374 783.198,76.374C785.582,76.374 787.544,74.44 787.544,72.091C787.684,69.742 785.582,67.807 783.198,67.807ZM783.198,78.171C779.833,78.171 777.029,75.407 777.029,72.091C777.029,68.774 779.833,66.011 783.198,66.011C786.563,66.011 789.367,68.774 789.367,72.091C789.367,75.407 786.563,78.171 783.198,78.171Z" style="fill-rule:nonzero;"/>
                <path d="M848.954,47.909L771.841,47.909C771.421,47.909 771,47.495 771,47.08C771,46.666 771.421,46.251 771.841,46.251L848.954,46.251C849.374,46.251 849.795,46.666 849.795,47.08C849.795,47.495 849.374,47.909 848.954,47.909Z" style="fill-rule:nonzero;"/>
                <path d="M823.577,72.92L797.218,72.92C796.798,72.92 796.377,72.505 796.377,72.091C796.377,71.676 796.798,71.262 797.218,71.262L823.577,71.262C823.998,71.262 824.418,71.676 824.418,72.091C824.418,72.644 823.998,72.92 823.577,72.92Z" style="fill-rule:nonzero;"/>
                <path d="M790.208,34.091L795.536,34.091L795.536,24.556L790.208,24.556L790.208,34.091ZM796.377,35.887L789.367,35.887C788.947,35.887 788.526,35.472 788.526,35.058L788.526,23.865C788.526,23.451 788.947,23.036 789.367,23.036L796.377,23.036C796.798,23.036 797.218,23.451 797.218,23.865L797.218,35.058C797.218,35.472 796.798,35.887 796.377,35.887Z" style="fill-rule:nonzero;"/>
                <path d="M792.872,24.557C792.452,24.557 792.031,24.142 792.031,23.728L792.031,19.444C792.031,19.029 792.452,18.615 792.872,18.615C793.293,18.615 793.713,19.029 793.713,19.444L793.713,23.728C793.713,24.28 793.293,24.557 792.872,24.557Z" style="fill-rule:nonzero;"/>
                <path d="M792.872,40.171C792.452,40.171 792.031,39.756 792.031,39.342L792.031,35.058C792.031,34.644 792.452,34.229 792.872,34.229C793.293,34.229 793.713,34.644 793.713,35.058L793.713,39.342C793.713,39.756 793.293,40.171 792.872,40.171Z" style="fill-rule:nonzero;"/>
                <path d="M801.565,28.978L806.892,28.978L806.892,19.444L801.565,19.444L801.565,28.978ZM807.734,30.637L800.723,30.637C800.303,30.637 799.882,30.222 799.882,29.808L799.882,18.615C799.882,18.2 800.303,17.786 800.723,17.786L807.734,17.786C808.154,17.786 808.575,18.2 808.575,18.615L808.575,29.808C808.715,30.222 808.295,30.637 807.734,30.637Z" style="fill-rule:nonzero;"/>
                <path d="M804.229,19.444C803.809,19.444 803.389,19.029 803.389,18.615L803.389,14.331C803.389,13.916 803.809,13.502 804.229,13.502C804.65,13.502 805.07,13.916 805.07,14.331L805.07,18.615C805.21,19.029 804.79,19.444 804.229,19.444Z" style="fill-rule:nonzero;"/>
                <path d="M804.229,34.92C803.809,34.92 803.389,34.505 803.389,34.091L803.389,29.807C803.389,29.393 803.809,28.978 804.229,28.978C804.65,28.978 805.07,29.393 805.07,29.807L805.07,34.091C805.21,34.644 804.79,34.92 804.229,34.92Z" style="fill-rule:nonzero;"/>
                <path d="M824.418,28.978L829.746,28.978L829.746,19.444L824.418,19.444L824.418,28.978ZM830.588,30.637L823.577,30.637C823.155,30.637 822.735,30.222 822.735,29.808L822.735,18.615C822.735,18.2 823.155,17.786 823.577,17.786L830.588,17.786C831.007,17.786 831.428,18.2 831.428,18.615L831.428,29.808C831.428,30.222 831.007,30.637 830.588,30.637Z" style="fill-rule:nonzero;"/>
                <path d="M827.082,19.444C826.662,19.444 826.24,19.029 826.24,18.615L826.24,14.331C826.24,13.916 826.662,13.502 827.082,13.502C827.503,13.502 827.923,13.916 827.923,14.331L827.923,18.615C827.923,19.029 827.503,19.444 827.082,19.444Z" style="fill-rule:nonzero;"/>
                <path d="M827.082,34.92C826.662,34.92 826.24,34.505 826.24,34.091L826.24,29.807C826.24,29.393 826.662,28.978 827.082,28.978C827.503,28.978 827.923,29.393 827.923,29.807L827.923,34.091C827.923,34.644 827.503,34.92 827.082,34.92Z" style="fill-rule:nonzero;"/>
                <path d="M813.061,34.091L818.39,34.091L818.39,24.556L813.061,24.556L813.061,34.091ZM819.23,35.887L812.22,35.887C811.8,35.887 811.379,35.472 811.379,35.058L811.379,23.865C811.379,23.451 811.8,23.036 812.22,23.036L819.23,23.036C819.652,23.036 820.073,23.451 820.073,23.865L820.073,35.058C820.073,35.472 819.652,35.887 819.23,35.887Z" style="fill-rule:nonzero;"/>
                <path d="M815.725,24.557C815.305,24.557 814.884,24.142 814.884,23.728L814.884,19.444C814.884,19.029 815.305,18.615 815.725,18.615C816.146,18.615 816.566,19.029 816.566,19.444L816.566,23.728C816.566,24.28 816.146,24.557 815.725,24.557Z" style="fill-rule:nonzero;"/>
                <path d="M815.725,40.171C815.305,40.171 814.884,39.756 814.884,39.342L814.884,35.058C814.884,34.644 815.305,34.229 815.725,34.229C816.146,34.229 816.566,34.644 816.566,35.058L816.566,39.342C816.566,39.756 816.146,40.171 815.725,40.171Z" style="fill-rule:nonzero;"/>
                <path d="M807.734,42.796C807.314,42.796 806.892,42.382 806.892,41.967L806.892,37.684C806.892,37.269 807.314,36.855 807.734,36.855C808.154,36.855 808.575,37.269 808.575,37.684L808.575,41.967C808.715,42.382 808.295,42.796 807.734,42.796Z" style="fill-rule:nonzero;"/>
                <path d="M799.882,47.909C799.462,47.909 799.041,47.495 799.041,47.08L799.041,36.716C799.041,36.302 799.462,35.887 799.882,35.887C800.303,35.887 800.723,36.302 800.723,36.716L800.723,47.08C800.723,47.495 800.303,47.909 799.882,47.909Z" style="fill-rule:nonzero;"/>
                <path d="M810.397,15.16C809.977,15.16 809.556,14.746 809.556,14.331L809.556,9.08C809.556,8.666 809.977,8.251 810.397,8.251C810.819,8.251 811.239,8.666 811.239,9.08L811.239,14.331C811.239,14.746 810.819,15.16 810.397,15.16Z" style="fill-rule:nonzero;"/>
            </g>
        </g>
    </g>
</svg>
