<?xml version="1.0" encoding="UTF-8" standalone="no"?>
<!DOCTYPE svg PUBLIC "-//W3C//DTD SVG 1.1//EN" "http://www.w3.org/Graphics/SVG/1.1/DTD/svg11.dtd">
<svg width="100%" height="100%" viewBox="0 0 277 277" version="1.1" xmlns="http://www.w3.org/2000/svg" xmlns:xlink="http://www.w3.org/1999/xlink" xml:space="preserve" xmlns:serif="http://www.serif.com/" style="fill-rule:evenodd;clip-rule:evenodd;stroke-linejoin:round;stroke-miterlimit:2;">
    <g transform="matrix(1,0,0,1,-672.213,0)">
        <g id="Artboard2" transform="matrix(1,0,0,1,3868.4,-1715.25)">
            <rect x="-3196.19" y="1715.25" width="276.413" height="276.413" style="fill:none;"/>
            <g transform="matrix(2.12351,0,0,2.12351,-3960.82,1759.58)">
                <path d="M441.267,12.166C452.74,23.417 452.74,41.472 441.267,52.722C429.796,63.972 411.386,63.972 399.913,52.722C388.442,41.472 388.442,23.417 399.913,12.166C411.386,0.917 429.936,0.917 441.267,12.166Z" style="fill:rgb(0,108,135);fill-rule:nonzero;"/>
                <path d="M420.591,12.444C431.779,12.444 440.984,21.333 440.984,32.444C440.984,43.556 431.92,52.444 420.591,52.444C409.403,52.444 400.196,43.556 400.196,32.444C400.196,21.333 409.403,12.444 420.591,12.444Z" style="fill:white;fill-rule:nonzero;"/>
                <path d="M459.111,8C462.083,8 464.493,10.363 464.493,13.278C464.493,16.192 462.083,18.556 459.111,18.556C456.139,18.556 453.731,16.192 453.731,13.278C453.731,10.363 456.139,8 459.111,8Z" style="fill:rgb(254,193,0);fill-rule:nonzero;"/>
                <path d="M397.505,63.694C401.182,63.694 404.162,66.617 404.162,70.222C404.162,73.826 401.182,76.75 397.505,76.75C393.829,76.75 390.85,73.826 390.85,70.222C390.85,66.617 393.829,63.694 397.505,63.694Z" style="fill:rgb(254,193,0);fill-rule:nonzero;"/>
                <path d="M427.247,23.694C429.201,23.694 430.788,25.249 430.788,27.167C430.788,29.083 429.201,30.639 427.247,30.639C425.291,30.639 423.705,29.083 423.705,27.167C423.705,25.249 425.291,23.694 427.247,23.694Z" style="fill:rgb(229,0,88);fill-rule:nonzero;"/>
                <path d="M412.235,32.444C414.189,32.444 415.775,34 415.775,35.917C415.775,37.833 414.189,39.389 412.235,39.389C410.279,39.389 408.694,37.833 408.694,35.917C408.694,34 410.279,32.444 412.235,32.444Z" style="fill:rgb(254,90,90);fill-rule:nonzero;"/>
                <path d="M462.51,64.944C463.786,66.194 464.353,67.722 464.353,69.25C464.353,70.778 463.786,72.306 462.51,73.556C460.102,75.917 456.137,75.917 453.731,73.556L446.224,66.195C443.817,63.833 443.817,59.944 446.224,57.583C448.632,55.222 452.597,55.222 455.005,57.583L462.51,64.944Z" style="fill:rgb(0,108,135);fill-rule:nonzero;"/>
                <path d="M464.777,26.334C465.48,26.334 466.051,26.892 466.051,27.584C466.051,28.272 465.48,28.834 464.777,28.834C464.073,28.834 463.501,28.272 463.501,27.584C463.501,26.892 464.073,26.334 464.777,26.334Z" style="fill-rule:nonzero;"/>
                <path d="M455.996,45.5C456.7,45.5 457.271,46.06 457.271,46.75C457.271,47.44 456.7,48 455.996,48C455.292,48 454.722,47.44 454.722,46.75C454.722,46.06 455.292,45.5 455.996,45.5Z" style="fill-rule:nonzero;"/>
                <path d="M445.374,3C446.078,3 446.65,3.56 446.65,4.25C446.65,4.94 446.078,5.5 445.374,5.5C444.67,5.5 444.1,4.94 444.1,4.25C444.1,3.56 444.67,3 445.374,3Z" style="fill-rule:nonzero;"/>
                <path d="M440.984,73.278C441.688,73.278 442.258,73.838 442.258,74.528C442.258,75.218 441.688,75.778 440.984,75.778C440.28,75.778 439.71,75.218 439.71,74.528C439.71,73.838 440.28,73.278 440.984,73.278Z" style="fill-rule:nonzero;"/>
                <path d="M416.2,67.167C416.904,67.167 417.475,67.726 417.475,68.417C417.475,69.107 416.904,69.667 416.2,69.667C415.497,69.667 414.926,69.107 414.926,68.417C414.926,67.726 415.497,67.167 416.2,67.167Z" style="fill-rule:nonzero;"/>
                <path d="M392.265,5.5C392.969,5.5 393.541,6.06 393.541,6.75C393.541,7.439 392.969,8 392.265,8C391.561,8 390.991,7.439 390.991,6.75C390.991,6.06 391.561,5.5 392.265,5.5Z" style="fill-rule:nonzero;"/>
                <path d="M391.417,53.278C392.121,53.278 392.691,53.838 392.691,54.528C392.691,55.218 392.121,55.778 391.417,55.778C390.713,55.778 390.141,55.218 390.141,54.528C390.141,53.838 390.713,53.278 391.417,53.278Z" style="fill-rule:nonzero;"/>
                <path d="M420.591,4.667C413.083,4.667 405.862,7.583 400.622,12.861C395.24,18.139 392.265,25.083 392.265,32.444C392.265,39.806 395.24,46.889 400.622,52.028C406.003,57.306 413.083,60.222 420.591,60.222C428.097,60.222 435.319,57.306 440.558,52.028C445.941,46.75 448.915,39.806 448.915,32.444C448.915,25.083 445.941,18 440.558,12.861C435.319,7.583 428.238,4.667 420.591,4.667ZM420.591,61.889C412.518,61.889 405.012,58.833 399.348,53.278C393.682,47.722 390.566,40.361 390.566,32.444C390.566,24.528 393.682,17.167 399.348,11.611C405.012,6.056 412.518,3 420.591,3C428.662,3 436.169,6.056 441.835,11.611C447.498,17.167 450.614,24.528 450.614,32.444C450.614,40.361 447.498,47.722 441.835,53.278C436.169,58.833 428.662,61.889 420.591,61.889Z" style="fill-rule:nonzero;"/>
                <path d="M420.591,13.278C409.827,13.278 401.047,21.889 401.047,32.445C401.047,43 409.827,51.611 420.591,51.611C431.353,51.611 440.135,43 440.135,32.445C440.135,21.889 431.353,13.278 420.591,13.278ZM420.591,53.278C408.836,53.278 399.348,43.972 399.348,32.445C399.348,20.917 408.836,11.611 420.591,11.611C432.344,11.611 441.835,20.917 441.835,32.445C441.835,43.972 432.344,53.278 420.591,53.278Z" style="fill-rule:nonzero;"/>
                <path d="M450.614,56.611C449.198,56.611 447.924,57.167 446.791,58.139C445.8,59.111 445.233,60.361 445.233,61.889C445.233,63.417 445.8,64.528 446.791,65.639L454.296,73C455.288,73.972 456.563,74.528 458.12,74.528C459.537,74.528 460.811,73.972 461.945,73C462.936,72.028 463.501,70.639 463.501,69.25C463.501,67.861 462.936,66.611 461.945,65.5L454.438,58.139C453.447,57.167 452.031,56.611 450.614,56.611ZM458.263,76.194C456.42,76.194 454.579,75.5 453.305,74.111L445.8,66.75C444.524,65.5 443.675,63.694 443.675,61.889C443.675,60.083 444.383,58.278 445.8,57.028C447.074,55.778 448.915,54.944 450.757,54.944C452.597,54.944 454.438,55.639 455.713,57.028L463.219,64.389C464.493,65.639 465.344,67.444 465.344,69.25C465.344,71.056 464.635,72.861 463.219,74.111C461.802,75.5 460.102,76.194 458.263,76.194Z" style="fill-rule:nonzero;"/>
                <path d="M446.365,58.417C446.083,58.417 445.941,58.278 445.8,58.139L440.842,53.278C440.558,53 440.558,52.444 440.842,52.028C441.127,51.75 441.692,51.75 442.118,52.028L447.074,56.889C447.357,57.167 447.357,57.722 447.074,58.139C446.791,58.417 446.507,58.417 446.365,58.417Z" style="fill-rule:nonzero;"/>
                <path d="M412.235,33.278C410.818,33.278 409.544,34.389 409.544,35.916C409.544,37.444 410.678,38.555 412.235,38.555C413.792,38.555 414.926,37.444 414.926,35.916C414.926,34.389 413.652,33.278 412.235,33.278ZM412.235,40.222C409.827,40.222 407.844,38.278 407.844,35.916C407.844,33.555 409.827,31.611 412.235,31.611C414.643,31.611 416.625,33.555 416.625,35.916C416.625,38.278 414.643,40.222 412.235,40.222Z" style="fill-rule:nonzero;"/>
                <path d="M434.327,36.75L415.775,36.75C415.351,36.75 414.926,36.334 414.926,35.917C414.926,35.5 415.351,35.084 415.775,35.084L434.327,35.084C434.752,35.084 435.178,35.5 435.178,35.917C435.178,36.334 434.752,36.75 434.327,36.75Z" style="fill-rule:nonzero;"/>
                <path d="M408.694,36.75L405.154,36.75C404.729,36.75 404.304,36.334 404.304,35.917C404.304,35.5 404.729,35.084 405.154,35.084L408.694,35.084C409.118,35.084 409.544,35.5 409.544,35.917C409.544,36.334 409.118,36.75 408.694,36.75Z" style="fill-rule:nonzero;"/>
                <path d="M427.247,24.667C425.83,24.667 424.556,25.778 424.556,27.306C424.556,28.833 425.689,29.944 427.247,29.944C428.805,29.944 429.936,28.833 429.936,27.306C429.936,25.778 428.662,24.667 427.247,24.667ZM427.247,31.611C424.839,31.611 422.857,29.667 422.857,27.306C422.857,24.945 424.839,23 427.247,23C429.654,23 431.636,24.945 431.636,27.306C431.636,29.667 429.654,31.611 427.247,31.611Z" style="fill-rule:nonzero;"/>
                <path d="M423.705,28.139L405.154,28.139C404.729,28.139 404.304,27.722 404.304,27.306C404.304,26.889 404.729,26.472 405.154,26.472L423.705,26.472C424.131,26.472 424.556,26.889 424.556,27.306C424.556,27.722 424.131,28.139 423.705,28.139Z" style="fill-rule:nonzero;"/>
                <path d="M434.327,28.139L430.788,28.139C430.362,28.139 429.936,27.722 429.936,27.306C429.936,26.889 430.362,26.472 430.788,26.472L434.327,26.472C434.752,26.472 435.178,26.889 435.178,27.306C435.178,27.722 434.752,28.139 434.327,28.139Z" style="fill-rule:nonzero;"/>
                <path d="M459.111,8.972C456.704,8.972 454.722,10.916 454.722,13.278C454.722,15.639 456.704,17.583 459.111,17.583C461.519,17.583 463.501,15.639 463.501,13.278C463.501,10.916 461.519,8.972 459.111,8.972ZM459.111,19.389C455.713,19.389 452.88,16.611 452.88,13.278C452.88,9.944 455.713,7.167 459.111,7.167C462.51,7.167 465.344,9.944 465.344,13.278C465.344,16.611 462.51,19.389 459.111,19.389Z" style="fill-rule:nonzero;"/>
                <path d="M397.505,64.528C394.39,64.528 391.7,67.028 391.7,70.222C391.7,73.278 394.248,75.916 397.505,75.916C400.622,75.916 403.313,73.416 403.313,70.222C403.313,67.028 400.763,64.528 397.505,64.528ZM397.505,77.583C393.399,77.583 390,74.25 390,70.222C390,66.194 393.399,62.861 397.505,62.861C401.613,62.861 405.012,66.194 405.012,70.222C405.012,74.25 401.756,77.583 397.505,77.583Z" style="fill-rule:nonzero;"/>
            </g>
        </g>
    </g>
</svg>
